# xmcd
#
# Track frame offsets: 
#        150
#        14572
#        33279
#        50295
#        70543
#        86790
#        105399
#        124722
#        139791
#        156560
#        179405
#        209687
#        227579
#        245435
#
# Disc length: 3571 seconds
#
# Revision: 0
# Processed by: cddbd v1.5.2PL0 Copyright (c) Steve Scherf et al.
# Submitted via: ExactAudioCopy v1.0b3
#
DISCID=be0df10e
DTITLE=blau: - All up Stee
DYEAR=1900
DGENRE=Blues
TTITLE0=De Bremer Stadtmuuskanten
TTITLE1=Nordic Walking
TTITLE2=Spöl mi en plattdüütsen Blues
TTITLE3=Kann ween
TTITLE4=Heven is för de Engels
TTITLE5=In dien Arms
TTITLE6=Dat is nich fair
TTITLE7=Se wölen Daimler fahrn
TTITLE8=Lang her
TTITLE9=Wintertied
TTITLE10=Störmflood
TTITLE11=Ik hebb dien Schlötel verlorn
TTITLE12=All up Stee
TTITLE13=De Lawaimaker
EXTD=
EXTT0=
EXTT1=
EXTT2=
EXTT3=
EXTT4=
EXTT5=
EXTT6=
EXTT7=
EXTT8=
EXTT9=
EXTT10=
EXTT11=
EXTT12=
EXTT13=
PLAYORDER=
